<svg width="104" height="104" viewBox="0 0 104 104" fill="none" xmlns="http://www.w3.org/2000/svg">
<g clip-path="url(#clip0_5_7)">
<g filter="url(#filter0_d_5_7)">
<path d="M18.76 79.352C18.76 75.704 19.624 69.272 21.352 60.056C23.08 50.84 24.136 45.016 24.52 42.584L19.432 32.312C27.56 27.704 34.472 25.4 40.168 25.4C42.984 25.4 45.096 26.36 46.504 28.28C51.816 26.424 56.712 25.496 61.192 25.496C69.512 25.496 75.976 28.216 80.584 33.656C85.192 39.032 87.496 45.752 87.496 53.816C87.496 64.44 83.592 74.2 75.784 83.096C72.008 87.384 67.016 90.84 60.808 93.464C54.664 96.088 48.072 97.4 41.032 97.4C33.992 97.4 28.52 95.864 24.616 92.792C20.712 89.656 18.76 85.176 18.76 79.352ZM39.112 83C40.456 83.256 41.96 83.384 43.624 83.384C50.6 83.384 56.04 80.888 59.944 75.896C63.848 70.84 65.8 64.632 65.8 57.272C65.8 51.32 64.456 46.584 61.768 43.064C59.08 39.544 55.208 37.784 50.152 37.784C49.384 37.784 48.104 37.912 46.312 38.168C45.864 41.432 44.68 48.728 42.76 60.056C40.904 71.32 39.688 78.968 39.112 83Z" fill="#E82727"/>
</g>
<circle cx="32" cy="13" r="9" fill="url(#paint0_radial_5_7)"/>
</g>
<defs>
<filter id="filter0_d_5_7" x="18.76" y="25.4" width="78.736" height="80" filterUnits="userSpaceOnUse" color-interpolation-filters="sRGB">
<feFlood flood-opacity="0" result="BackgroundImageFix"/>
<feColorMatrix in="SourceAlpha" type="matrix" values="0 0 0 0 0 0 0 0 0 0 0 0 0 0 0 0 0 0 127 0" result="hardAlpha"/>
<feOffset dx="6" dy="4"/>
<feGaussianBlur stdDeviation="2"/>
<feComposite in2="hardAlpha" operator="out"/>
<feColorMatrix type="matrix" values="0 0 0 0 0 0 0 0 0 0 0 0 0 0 0 0 0 0 0.15 0"/>
<feBlend mode="normal" in2="BackgroundImageFix" result="effect1_dropShadow_5_7"/>
<feBlend mode="normal" in="SourceGraphic" in2="effect1_dropShadow_5_7" result="shape"/>
</filter>
<radialGradient id="paint0_radial_5_7" cx="0" cy="0" r="1" gradientUnits="userSpaceOnUse" gradientTransform="translate(32 13) rotate(90) scale(9)">
<stop stop-color="#EBFF03"/>
<stop offset="0.51" stop-color="#FFB800" stop-opacity="0.55"/>
<stop offset="0.629" stop-color="#F9FE0F" stop-opacity="0.598254"/>
<stop offset="0.699" stop-color="#F6CF00" stop-opacity="0.63"/>
<stop offset="1" stop-color="#FFF500"/>
</radialGradient>
<clipPath id="clip0_5_7">
<rect width="104" height="104" fill="white"/>
</clipPath>
</defs>
</svg>
